<svg width="80" height="80" viewBox="0 0 80 80" fill="none" xmlns="http://www.w3.org/2000/svg">
<g clip-path="url(#clip0_4_6)">
<path d="M76.7933 56.6667H3.45998C1.61998 56.6667 0.126648 58.16 0.126648 60C0.126648 61.84 1.61998 63.3333 3.45998 63.3333H5.04998C10.1266 68.3333 20.1266 76.6667 40.1266 76.6667C60.1266 76.6667 70.1266 68.3333 75.2033 63.3333H76.7933C78.6333 63.3333 80.1266 61.84 80.1266 60C80.1266 58.16 78.6333 56.6667 76.7933 56.6667ZM30.1266 50V13.3333C30.1266 7.80999 34.6033 3.33333 40.1266 3.33333C45.65 3.33333 50.1266 7.80999 50.1266 13.3333V50H30.1266ZM23.46 50H3.45998V41.84C3.45998 28.1933 11.4066 15.9433 23.46 9.90999V50.0033V50ZM76.7933 41.84V50H56.7933V9.90666C68.8466 15.94 76.7933 28.1933 76.7933 41.8367V41.84Z" fill="white"/>
</g>
<defs>
<clipPath id="clip0_4_6">
<rect width="80" height="80" fill="white"/>
</clipPath>
</defs>
</svg>
